# xmcd CD database file generated by Grip 2.92
# 
# Track frame offsets:
#       150
#       13859
#       27244
#       41364
#       55099
#       69255
#       83040
#       96415
#       109584
#       123662
#       139447
#       154214
#       168465
#       182978
#       197137
#       210054
#       224391
#       238824
#       253341
#       266304
#       279939
#       293931
#       307892
#       321939
# 
# Disc length: 4482 seconds
# 
# Revision: 3
# Processed by: cddbd v1.4b41PL1 Copyright (c) Steve Scherf et al.
# Submitted via: Grip 2.92
# 
DISCID=61118018
DTITLE=Burnett and Rutherford - Complete Recorded Works
DYEAR=1900
DGENRE=
TTITLE0=Lost John
TTITLE1=Little Stream of Whiskey
TTITLE2=Weeping Willow Tree
TTITLE3=When The Roses Bloom Again (2)
TTITLE4=A Short Life Of Trouble
TTITLE5=Pearl Bryan
TTITLE6=My Sweetheart in Tennessee
TTITLE7=Are You Happy Or Lonesome
TTITLE8=Curley-Headed Woman
TTITLE9=Ramblin' Reckless Hobo
TTITLE10=Willie Moore
TTITLE11=All Night Long Blues
TTITLE12=Ladies On The Steamboat
TTITLE13=Billy In The Low Ground
TTITLE14=Flower From The Fields of Alabama
TTITLE15=Under The Pale Moonlight
TTITLE16=Knoxville Rag
TTITLE17=Grandma's Rag
TTITLE18=Cumberland Gap
TTITLE19=Going Around The World
TTITLE20=Going Across The Sea
TTITLE21=Bonnie Blue Waltz
TTITLE22=Sleeping Lulu
TTITLE23=Blackberry Blossoms
EXTD=
EXTT0=
EXTT1=
EXTT2=
EXTT3=
EXTT4=
EXTT5=
EXTT6=
EXTT7=
EXTT8=
EXTT9=
EXTT10=
EXTT11=
EXTT12=
EXTT13=
EXTT14=
EXTT15=
EXTT16=
EXTT17=
EXTT18=
EXTT19=
EXTT20=
EXTT21=
EXTT22=
EXTT23=
PLAYORDER=
